<svg width="256" height="256" viewBox="0 0 256 256" fill="none" xmlns="http://www.w3.org/2000/svg">
<g clip-path="url(#clip0_1224_504)">
<rect width="256" height="256" fill="white"/>
<rect width="192" height="192" transform="translate(32 32)" fill="white"/>
<path fill-rule="evenodd" clip-rule="evenodd" d="M168.22 83.5095L146.149 128.329L168.22 173.148L190.292 128.329L168.22 83.5095ZM178.901 51.3027C174.537 42.4421 161.904 42.4421 157.54 51.3027L122.198 123.069C120.565 126.385 120.565 130.272 122.198 133.588L157.54 205.355C161.904 214.215 174.537 214.215 178.901 205.355L214.243 133.588C215.876 130.272 215.876 126.385 214.243 123.069L178.901 51.3027Z" fill="#001466"/>
<path d="M140.442 55.9051C140.442 58.4779 139.45 60.3696 138.239 62.8069L111.145 117.313C107.879 123.946 107.879 131.719 111.145 138.352L138.813 193.743C139.848 195.508 140.442 197.564 140.442 199.759C140.442 206.334 135.112 211.664 128.537 211.664C123.651 211.664 120.833 209.68 118.849 206.704L82.1414 133.092C80.5083 129.776 80.5083 125.889 82.1414 122.573L117.712 50.9444C119.593 46.8462 123.733 44 128.537 44C135.112 44 140.442 49.3301 140.442 55.9051Z" fill="#0066FF"/>
<path d="M100.526 55.9051C100.526 58.4779 99.5336 60.3696 98.3221 62.8069L71.2284 117.313C67.9621 123.946 67.9621 131.719 71.2284 138.352L98.8961 193.743C99.9319 195.508 100.526 197.564 100.526 199.759C100.526 206.334 95.1956 211.664 88.6206 211.664C83.7342 211.664 80.9166 209.68 78.9324 206.704L42.2249 133.092C40.5917 129.776 40.5917 125.889 42.2249 122.573L77.795 50.9444C79.6761 46.8462 83.8159 44 88.6206 44C95.1956 44 100.526 49.3301 100.526 55.9051Z" fill="#001466"/>
</g>
<defs>
<clipPath id="clip0_1224_504">
<rect width="256" height="256" fill="white"/>
</clipPath>
</defs>
</svg>
